<?xml version="1.0" encoding="utf-8"?>
<!-- Generator: Adobe Illustrator 26.0.1, SVG Export Plug-In . SVG Version: 6.00 Build 0)  -->
<svg version="1.1" id="Слой_1" xmlns="http://www.w3.org/2000/svg" xmlns:xlink="http://www.w3.org/1999/xlink" x="0px" y="0px"
	 viewBox="0 0 46 17" style="enable-background:new 0 0 46 17;" xml:space="preserve">
<style type="text/css">
	.st0{fill:#D7B399;}
	.st1{fill:#FFFFFF;}
</style>
<polygon class="st0" points="13,1 13,1.1 0.2,8.5 13,15.9 13,16 46,16 46,1 "/>
<path class="st1" d="M28.8,7.8c1.2,0,2.1,0.2,2.6,0.7c0.6,0.5,0.9,1.1,0.9,1.9c0,0.5-0.1,1-0.4,1.4c-0.3,0.4-0.6,0.8-1.2,1
	c-0.5,0.2-1.2,0.4-1.9,0.4c-0.6,0-1.2-0.1-1.8-0.2c-0.6-0.2-1.1-0.4-1.5-0.7l0.8-1.5c0.3,0.2,0.7,0.4,1.1,0.6
	c0.4,0.1,0.8,0.2,1.3,0.2c0.5,0,0.9-0.1,1.2-0.3s0.4-0.5,0.4-0.8c0-0.4-0.1-0.6-0.4-0.8c-0.3-0.2-0.8-0.3-1.5-0.3h-2.1l0.4-4.7h5.1
	v1.6h-3.5l-0.1,1.6H28.8z"/>
</svg>
