<?xml version="1.0" encoding="utf-8"?>
<!-- Generator: Adobe Illustrator 26.0.1, SVG Export Plug-In . SVG Version: 6.00 Build 0)  -->
<svg version="1.1" id="Слой_1" xmlns="http://www.w3.org/2000/svg" xmlns:xlink="http://www.w3.org/1999/xlink" x="0px" y="0px"
	 viewBox="0 0 1000 1000" style="enable-background:new 0 0 1000 1000;" xml:space="preserve">
<style type="text/css">
	.st0{fill:#C1272D;}
</style>
<g>
	<path class="st0" d="M253.3,732.01c-19.42,0-35.21-15.8-35.21-35.21V269.4c0-19.42,15.8-35.21,35.21-35.21
		c62.45,0,123.04,12.23,180.07,36.36c55.09,23.3,104.56,56.66,147.05,99.14c42.48,42.48,75.84,91.96,99.14,147.05
		c24.12,57.04,36.36,117.62,36.36,180.07c0,19.42-15.8,35.21-35.21,35.21H253.3z"/>
	<path d="M253.3,238.68c253.01,0,458.12,205.11,458.12,458.12v0c0,16.96-13.75,30.71-30.71,30.71H253.3
		c-16.96,0-30.71-13.75-30.71-30.71V269.4C222.58,252.43,236.34,238.68,253.3,238.68L253.3,238.68 M253.3,229.68
		c-21.9,0-39.71,17.82-39.71,39.71v427.4c0,21.9,17.82,39.71,39.71,39.71h427.4c21.9,0,39.71-17.82,39.71-39.71
		c0-63.06-12.35-124.23-36.71-181.83C660.18,459.35,626.5,409.4,583.6,366.5c-42.9-42.9-92.85-76.58-148.48-100.1
		C377.53,242.04,316.35,229.68,253.3,229.68L253.3,229.68z"/>
</g>
</svg>
